<svg width="24" height="24" viewBox="0 0 24 24" fill="none" xmlns="http://www.w3.org/2000/svg">
<path d="M22 7.43018V13.4302C22 14.9302 21.5 16.1802 20.62 17.0602C19.75 17.9302 18.5 18.4302 17 18.4302V20.5602C17 21.3602 16.11 21.8402 15.45 21.4002L11 18.4302H8.88C8.96 18.1302 9 17.8202 9 17.5002C9 16.4802 8.61 15.5402 7.97 14.8302C7.59807 14.41 7.14074 14.0739 6.62857 13.8446C6.1164 13.6152 5.56118 13.4978 5 13.5002C3.88 13.5002 2.86 13.9602 2.13 14.7102C2.04 14.3102 2 13.8802 2 13.4302V7.43018C2 4.43018 4 2.43018 7 2.43018H17C20 2.43018 22 4.43018 22 7.43018Z" stroke="white" stroke-opacity="0.8" stroke-width="1.5" stroke-miterlimit="10" stroke-linecap="round" stroke-linejoin="round"/>
<path d="M6.49001 17.48H3.51001M5.00001 16.02V19.01M8.50001 10.5H15.5M9.00001 17.5C9.00001 17.82 8.96001 18.13 8.88001 18.43C8.79001 18.83 8.63001 19.22 8.42001 19.56C8.06748 20.1525 7.56672 20.643 6.96705 20.9831C6.36737 21.3233 5.68944 21.5014 5.00001 21.5C4.01546 21.5029 3.06586 21.1352 2.34001 20.47C2.04001 20.21 1.78001 19.9 1.58001 19.56C1.19935 18.9404 0.998531 18.2272 1.00001 17.5C0.99935 16.9745 1.10236 16.4541 1.30315 15.9685C1.50394 15.4829 1.79855 15.0417 2.17011 14.6701C2.54168 14.2985 2.9829 14.0039 3.4685 13.8031C3.9541 13.6024 4.47454 13.4993 5.00001 13.5C6.18001 13.5 7.25001 14.01 7.97001 14.83C8.61001 15.54 9.00001 16.48 9.00001 17.5Z" stroke="white" stroke-opacity="0.8" stroke-width="1.5" stroke-miterlimit="10" stroke-linecap="round" stroke-linejoin="round"/>
</svg>
